# xmcd CD database file
#
# Track frame offsets:
#	150
#	17302
#	29042
#	62213
#	77422
#	102506
#	131675
#
# Disc length: 1883 seconds
#
# Revision: 0
# Processed by: cddbd v1.5.2PL0 Copyright (c) Steve Scherf et al.
# Submitted via: CDex 1.70beta2
#
DISCID=54075907
DTITLE=Emil Kowalski, Maciek Grzywacz, Olo Walicki - Off Shore
DYEAR=1999
DGENRE=Jazz
TTITLE0=Beatrice - S Rivers
TTITLE1=Eisenhower - J. Scofield
TTITLE2=Yesterdays - J. Kern
TTITLE3=Au Privave - Ch. Parker
TTITLE4=Someday My prince Will Come - F. Churchill
TTITLE5=Wave - A. C. Jobim
TTITLE6=Intrigue and Love (from F. Schiller drama) - M. Kuczynski
EXTD=YEAR: 1999
EXTT0=
EXTT1=
EXTT2=
EXTT3=
EXTT4=
EXTT5=
EXTT6=
PLAYORDER=
